<svg width="40" height="40" viewBox="0 0 40 40" fill="none" xmlns="http://www.w3.org/2000/svg">
<circle cx="20" cy="20" r="20" fill="#DC3545" fill-opacity="0.18"/>
<path fill-rule="evenodd" clip-rule="evenodd" d="M21.4726 8.34917C21.3241 8.09052 21.11 7.87562 20.8519 7.72618C20.5938 7.57674 20.3008 7.49805 20.0026 7.49805C19.7043 7.49805 19.4113 7.57674 19.1532 7.72618C18.8951 7.87562 18.681 8.09052 18.5326 8.34917L8.24705 25.8497C7.56155 27.0167 8.38355 28.5002 9.71705 28.5002H30.2866C31.6201 28.5002 32.4436 27.0152 31.7566 25.8497L21.4726 8.34917ZM19.9996 13.5002C19.81 13.5003 19.6225 13.5401 19.4492 13.6171C19.276 13.694 19.1207 13.8064 18.9936 13.947C18.8664 14.0876 18.7701 14.2533 18.7108 14.4334C18.6516 14.6135 18.6307 14.804 18.6496 14.9927L19.1746 20.2532C19.1922 20.4598 19.2867 20.6523 19.4395 20.7926C19.5923 20.9329 19.7921 21.0108 19.9996 21.0108C20.207 21.0108 20.4068 20.9329 20.5596 20.7926C20.7124 20.6523 20.8069 20.4598 20.8246 20.2532L21.3496 14.9927C21.3684 14.804 21.3475 14.6135 21.2883 14.4334C21.229 14.2533 21.1327 14.0876 21.0055 13.947C20.8784 13.8064 20.7231 13.694 20.5499 13.6171C20.3766 13.5401 20.1891 13.5003 19.9996 13.5002V13.5002ZM20.0026 22.5002C19.6047 22.5002 19.2232 22.6582 18.9419 22.9395C18.6606 23.2208 18.5026 23.6023 18.5026 24.0002C18.5026 24.398 18.6606 24.7795 18.9419 25.0608C19.2232 25.3421 19.6047 25.5002 20.0026 25.5002C20.4004 25.5002 20.7819 25.3421 21.0632 25.0608C21.3445 24.7795 21.5026 24.398 21.5026 24.0002C21.5026 23.6023 21.3445 23.2208 21.0632 22.9395C20.7819 22.6582 20.4004 22.5002 20.0026 22.5002Z" fill="#DC3545"/>
</svg>
