<svg width="246" height="34" viewBox="0 0 246 34" fill="none" xmlns="http://www.w3.org/2000/svg">
<rect x="1" y="1" width="32.1311" height="32.1311" rx="1.60656" stroke="#9EC5FE" stroke-width="1.60656"/>
<path d="M10.6394 20.2787H7.42626C6.53898 20.2787 5.8197 20.998 5.8197 21.8852V26.7049C5.8197 27.5922 6.53898 28.3115 7.42626 28.3115H10.6394C11.5267 28.3115 12.2459 27.5922 12.2459 26.7049V21.8852C12.2459 20.998 11.5267 20.2787 10.6394 20.2787Z" fill="#9EC5FE"/>
<path d="M18.6722 13.8525H15.459C14.5718 13.8525 13.8525 14.5717 13.8525 15.459V26.7049C13.8525 27.5922 14.5718 28.3115 15.459 28.3115H18.6722C19.5594 28.3115 20.2787 27.5922 20.2787 26.7049V15.459C20.2787 14.5717 19.5594 13.8525 18.6722 13.8525Z" fill="#9EC5FE"/>
<path d="M26.7049 5.81967H23.4918C22.6045 5.81967 21.8853 6.53895 21.8853 7.42623V26.7049C21.8853 27.5922 22.6045 28.3115 23.4918 28.3115H26.7049C27.5922 28.3115 28.3115 27.5922 28.3115 26.7049V7.42623C28.3115 6.53895 27.5922 5.81967 26.7049 5.81967Z" fill="#9EC5FE"/>
<path d="M44.6144 26.8033V8.10879H56.5906V10.9477H48.0009V16.0229H55.769V18.8618H48.0009V26.8033H44.6144ZM59.5298 26.8033V12.7824H62.8342V26.8033H59.5298ZM61.1911 10.7925C60.6678 10.7925 60.2175 10.619 59.8402 10.2722C59.4629 9.91921 59.2742 9.49627 59.2742 9.00335C59.2742 8.50434 59.4629 8.0814 59.8402 7.73453C60.2175 7.38158 60.6678 7.2051 61.1911 7.2051C61.7206 7.2051 62.1709 7.38158 62.5421 7.73453C62.9194 8.0814 63.1081 8.50434 63.1081 9.00335C63.1081 9.49627 62.9194 9.91921 62.5421 10.2722C62.1709 10.619 61.7206 10.7925 61.1911 10.7925ZM69.5366 18.5879V26.8033H66.2322V12.7824H69.3905V15.1649H69.5548C69.8774 14.3798 70.3916 13.7561 71.0975 13.2936C71.8095 12.8311 72.6888 12.5998 73.7355 12.5998C74.7031 12.5998 75.546 12.8068 76.264 13.2206C76.9882 13.6344 77.5481 14.2338 77.9436 15.0188C78.3453 15.8038 78.543 16.7562 78.5369 17.8759V26.8033H75.2326V18.3871C75.2326 17.4499 74.9891 16.7167 74.5023 16.1872C74.0215 15.6578 73.3552 15.3931 72.5032 15.3931C71.9251 15.3931 71.4109 15.5209 70.9606 15.7765C70.5163 16.026 70.1664 16.388 69.9108 16.8627C69.6613 17.3374 69.5366 17.9124 69.5366 18.5879ZM85.9308 27.0862C85.0423 27.0862 84.2421 26.928 83.5301 26.6116C82.8241 26.2891 82.2643 25.8144 81.8505 25.1876C81.4427 24.5608 81.2389 23.7879 81.2389 22.869C81.2389 22.0779 81.3849 21.4237 81.677 20.9065C81.9691 20.3892 82.3677 19.9754 82.8728 19.665C83.3779 19.3547 83.9469 19.1204 84.5798 18.9622C85.2188 18.7979 85.879 18.6792 86.5606 18.6062C87.3821 18.521 88.0485 18.4449 88.5597 18.378C89.0709 18.305 89.4421 18.1954 89.6733 18.0494C89.9106 17.8972 90.0293 17.6629 90.0293 17.3465V17.2917C90.0293 16.6041 89.8254 16.0716 89.4177 15.6943C89.01 15.317 88.4228 15.1284 87.656 15.1284C86.8466 15.1284 86.2046 15.3048 85.7299 15.6578C85.2614 16.0107 84.9449 16.4276 84.7806 16.9083L81.6953 16.4702C81.9387 15.6182 82.3403 14.9062 82.9002 14.3342C83.4601 13.7561 84.1447 13.324 84.954 13.038C85.7634 12.7459 86.658 12.5998 87.6377 12.5998C88.3132 12.5998 88.9857 12.679 89.6551 12.8372C90.3245 12.9954 90.936 13.2571 91.4898 13.6222C92.0436 13.9812 92.4878 14.4711 92.8225 15.0918C93.1633 15.7126 93.3337 16.4884 93.3337 17.4195V26.8033H90.1571V24.8772H90.0476C89.8467 25.2667 89.5638 25.6318 89.1986 25.9726C88.8396 26.3073 88.3862 26.5781 87.8385 26.785C87.2969 26.9858 86.661 27.0862 85.9308 27.0862ZM86.7888 24.6582C87.4521 24.6582 88.0272 24.5273 88.514 24.2656C89.0009 23.9979 89.3751 23.6449 89.6368 23.2068C89.9046 22.7686 90.0384 22.2909 90.0384 21.7737V20.1215C89.935 20.2067 89.7585 20.2858 89.509 20.3588C89.2656 20.4318 88.9917 20.4957 88.6875 20.5505C88.3832 20.6053 88.082 20.6539 87.7838 20.6965C87.4856 20.7391 87.227 20.7756 87.0079 20.8061C86.515 20.873 86.0738 20.9825 85.6843 21.1347C85.2948 21.2868 84.9875 21.4998 84.7624 21.7737C84.5372 22.0414 84.4246 22.3883 84.4246 22.8143C84.4246 23.4228 84.6467 23.8823 85.091 24.1926C85.5352 24.503 86.1012 24.6582 86.7888 24.6582ZM99.9608 18.5879V26.8033H96.6564V12.7824H99.8147V15.1649H99.979C100.302 14.3798 100.816 13.7561 101.522 13.2936C102.234 12.8311 103.113 12.5998 104.16 12.5998C105.127 12.5998 105.97 12.8068 106.688 13.2206C107.412 13.6344 107.972 14.2338 108.368 15.0188C108.769 15.8038 108.967 16.7562 108.961 17.8759V26.8033H105.657V18.3871C105.657 17.4499 105.413 16.7167 104.926 16.1872C104.446 15.6578 103.779 15.3931 102.927 15.3931C102.349 15.3931 101.835 15.5209 101.385 15.7765C100.941 16.026 100.591 16.388 100.335 16.8627C100.086 17.3374 99.9608 17.9124 99.9608 18.5879ZM118.436 27.0771C117.037 27.0771 115.835 26.7698 114.831 26.1552C113.833 25.5405 113.063 24.6916 112.521 23.6084C111.986 22.5191 111.718 21.2655 111.718 19.8476C111.718 18.4236 111.992 17.167 112.539 16.0777C113.087 14.9823 113.86 14.1303 114.858 13.5218C115.862 12.9072 117.049 12.5998 118.418 12.5998C119.556 12.5998 120.563 12.8098 121.439 13.2297C122.322 13.6435 123.025 14.2307 123.548 14.9914C124.071 15.746 124.369 16.6284 124.442 17.6386H121.284C121.156 16.9631 120.852 16.4002 120.371 15.9499C119.897 15.4935 119.261 15.2653 118.464 15.2653C117.788 15.2653 117.195 15.4478 116.684 15.813C116.172 16.172 115.774 16.6893 115.488 17.3648C115.208 18.0402 115.068 18.8496 115.068 19.7928C115.068 20.7483 115.208 21.5698 115.488 22.2574C115.768 22.939 116.16 23.4654 116.665 23.8366C117.176 24.2017 117.776 24.3843 118.464 24.3843C118.95 24.3843 119.385 24.293 119.769 24.1105C120.158 23.9218 120.484 23.651 120.746 23.2981C121.007 22.9451 121.187 22.5161 121.284 22.011H124.442C124.363 23.0029 124.071 23.8823 123.566 24.649C123.061 25.4097 122.373 26.0061 121.503 26.4381C120.633 26.8641 119.611 27.0771 118.436 27.0771ZM127.156 26.8033V12.7824H130.46V26.8033H127.156ZM128.817 10.7925C128.294 10.7925 127.844 10.619 127.466 10.2722C127.089 9.91921 126.9 9.49627 126.9 9.00335C126.9 8.50434 127.089 8.0814 127.466 7.73453C127.844 7.38158 128.294 7.2051 128.817 7.2051C129.347 7.2051 129.797 7.38158 130.168 7.73453C130.545 8.0814 130.734 8.50434 130.734 9.00335C130.734 9.49627 130.545 9.91921 130.168 10.2722C129.797 10.619 129.347 10.7925 128.817 10.7925ZM137.893 27.0862C137.004 27.0862 136.204 26.928 135.492 26.6116C134.786 26.2891 134.226 25.8144 133.813 25.1876C133.405 24.5608 133.201 23.7879 133.201 22.869C133.201 22.0779 133.347 21.4237 133.639 20.9065C133.931 20.3892 134.33 19.9754 134.835 19.665C135.34 19.3547 135.909 19.1204 136.542 18.9622C137.181 18.7979 137.841 18.6792 138.523 18.6062C139.344 18.521 140.011 18.4449 140.522 18.378C141.033 18.305 141.404 18.1954 141.635 18.0494C141.873 17.8972 141.991 17.6629 141.991 17.3465V17.2917C141.991 16.6041 141.788 16.0716 141.38 15.6943C140.972 15.317 140.385 15.1284 139.618 15.1284C138.809 15.1284 138.167 15.3048 137.692 15.6578C137.223 16.0107 136.907 16.4276 136.743 16.9083L133.657 16.4702C133.901 15.6182 134.302 14.9062 134.862 14.3342C135.422 13.7561 136.107 13.324 136.916 13.038C137.726 12.7459 138.62 12.5998 139.6 12.5998C140.275 12.5998 140.948 12.679 141.617 12.8372C142.287 12.9954 142.898 13.2571 143.452 13.6222C144.006 13.9812 144.45 14.4711 144.785 15.0918C145.125 15.7126 145.296 16.4884 145.296 17.4195V26.8033H142.119V24.8772H142.01C141.809 25.2667 141.526 25.6318 141.161 25.9726C140.802 26.3073 140.348 26.5781 139.801 26.785C139.259 26.9858 138.623 27.0862 137.893 27.0862ZM138.751 24.6582C139.414 24.6582 139.989 24.5273 140.476 24.2656C140.963 23.9979 141.337 23.6449 141.599 23.2068C141.867 22.7686 142.001 22.2909 142.001 21.7737V20.1215C141.897 20.2067 141.721 20.2858 141.471 20.3588C141.228 20.4318 140.954 20.4957 140.65 20.5505C140.345 20.6053 140.044 20.6539 139.746 20.6965C139.448 20.7391 139.189 20.7756 138.97 20.8061C138.477 20.873 138.036 20.9825 137.646 21.1347C137.257 21.2868 136.95 21.4998 136.724 21.7737C136.499 22.0414 136.387 22.3883 136.387 22.8143C136.387 23.4228 136.609 23.8823 137.053 24.1926C137.497 24.503 138.063 24.6582 138.751 24.6582ZM151.923 8.10879V26.8033H148.618V8.10879H151.923ZM164.244 26.8033H160.629L167.21 8.10879H171.391L177.981 26.8033H174.367L169.374 11.9426H169.228L164.244 26.8033ZM164.362 19.4734H174.221V22.1936H164.362V19.4734ZM191.153 16.4884L188.141 16.8171C188.056 16.5128 187.907 16.2268 187.694 15.959C187.487 15.6913 187.207 15.4752 186.854 15.3109C186.501 15.1466 186.069 15.0645 185.558 15.0645C184.87 15.0645 184.292 15.2135 183.824 15.5117C183.361 15.8099 183.133 16.1963 183.139 16.671C183.133 17.0787 183.282 17.4104 183.586 17.666C183.897 17.9216 184.408 18.1315 185.12 18.2958L187.511 18.807C188.838 19.093 189.824 19.5464 190.469 20.1671C191.12 20.7878 191.449 21.6002 191.455 22.6043C191.449 23.4867 191.19 24.2656 190.679 24.9411C190.174 25.6105 189.471 26.1339 188.57 26.5112C187.67 26.8885 186.635 27.0771 185.467 27.0771C183.75 27.0771 182.369 26.7181 181.322 26C180.276 25.2758 179.652 24.2687 179.451 22.9786L182.673 22.6682C182.819 23.3011 183.13 23.7788 183.604 24.1013C184.079 24.4239 184.697 24.5851 185.457 24.5851C186.242 24.5851 186.872 24.4239 187.347 24.1013C187.828 23.7788 188.068 23.3802 188.068 22.9055C188.068 22.5039 187.913 22.1723 187.603 21.9106C187.298 21.6489 186.824 21.4481 186.179 21.3081L183.787 20.8061C182.442 20.5261 181.447 20.0545 180.802 19.3912C180.157 18.7218 179.838 17.8759 179.844 16.8536C179.838 15.9894 180.072 15.2409 180.546 14.608C181.027 13.9691 181.694 13.4762 182.546 13.1293C183.404 12.7763 184.392 12.5998 185.512 12.5998C187.155 12.5998 188.448 12.9498 189.392 13.6496C190.341 14.3494 190.928 15.2957 191.153 16.4884ZM205.261 16.4884L202.249 16.8171C202.164 16.5128 202.014 16.2268 201.801 15.959C201.595 15.6913 201.315 15.4752 200.962 15.3109C200.609 15.1466 200.177 15.0645 199.665 15.0645C198.978 15.0645 198.4 15.2135 197.931 15.5117C197.469 15.8099 197.24 16.1963 197.246 16.671C197.24 17.0787 197.389 17.4104 197.694 17.666C198.004 17.9216 198.515 18.1315 199.227 18.2958L201.619 18.807C202.945 19.093 203.931 19.5464 204.576 20.1671C205.228 20.7878 205.556 21.6002 205.562 22.6043C205.556 23.4867 205.298 24.2656 204.786 24.9411C204.281 25.6105 203.578 26.1339 202.678 26.5112C201.777 26.8885 200.743 27.0771 199.574 27.0771C197.858 27.0771 196.477 26.7181 195.43 26C194.383 25.2758 193.76 24.2687 193.559 22.9786L196.781 22.6682C196.927 23.3011 197.237 23.7788 197.712 24.1013C198.187 24.4239 198.804 24.5851 199.565 24.5851C200.35 24.5851 200.98 24.4239 201.455 24.1013C201.935 23.7788 202.176 23.3802 202.176 22.9055C202.176 22.5039 202.021 22.1723 201.71 21.9106C201.406 21.6489 200.931 21.4481 200.286 21.3081L197.895 20.8061C196.55 20.5261 195.555 20.0545 194.91 19.3912C194.265 18.7218 193.945 17.8759 193.951 16.8536C193.945 15.9894 194.179 15.2409 194.654 14.608C195.135 13.9691 195.801 13.4762 196.653 13.1293C197.511 12.7763 198.5 12.5998 199.62 12.5998C201.263 12.5998 202.556 12.9498 203.499 13.6496C204.449 14.3494 205.036 15.2957 205.261 16.4884ZM214.494 27.0771C213.088 27.0771 211.874 26.785 210.852 26.2008C209.836 25.6105 209.054 24.7768 208.506 23.6997C207.958 22.6165 207.685 21.3416 207.685 19.875C207.685 18.4327 207.958 17.167 208.506 16.0777C209.06 14.9823 209.833 14.1303 210.825 13.5218C211.817 12.9072 212.982 12.5998 214.321 12.5998C215.185 12.5998 216 12.7398 216.767 13.0197C217.54 13.2936 218.221 13.7196 218.812 14.2977C219.408 14.8758 219.877 15.6121 220.218 16.5067C220.558 17.3952 220.729 18.454 220.729 19.6833V20.6965H209.236V18.4693H217.561C217.555 17.8364 217.418 17.2735 217.15 16.7805C216.883 16.2815 216.508 15.889 216.028 15.603C215.553 15.317 214.999 15.174 214.366 15.174C213.691 15.174 213.098 15.3383 212.586 15.6669C212.075 15.9894 211.677 16.4154 211.391 16.9449C211.111 17.4682 210.968 18.0433 210.962 18.6701V20.6144C210.962 21.4298 211.111 22.1297 211.409 22.7139C211.707 23.292 212.124 23.7362 212.659 24.0466C213.195 24.3508 213.822 24.503 214.54 24.503C215.021 24.503 215.456 24.436 215.845 24.3022C216.235 24.1622 216.572 23.9583 216.858 23.6906C217.144 23.4228 217.36 23.0912 217.506 22.6956L220.592 23.0425C220.397 23.8579 220.026 24.5699 219.478 25.1785C218.937 25.7809 218.243 26.2495 217.397 26.5842C216.551 26.9128 215.583 27.0771 214.494 27.0771ZM230.525 12.7824V15.3383H222.465V12.7824H230.525ZM224.455 9.42325H227.76V22.5861C227.76 23.0303 227.827 23.3711 227.96 23.6084C228.1 23.8397 228.283 23.9979 228.508 24.0831C228.733 24.1683 228.983 24.2109 229.257 24.2109C229.464 24.2109 229.652 24.1957 229.823 24.1652C229.999 24.1348 230.133 24.1074 230.224 24.0831L230.781 26.6664C230.605 26.7272 230.352 26.7941 230.023 26.8672C229.701 26.9402 229.305 26.9828 228.837 26.995C228.009 27.0193 227.264 26.8946 226.6 26.6207C225.937 26.3408 225.411 25.9087 225.021 25.3245C224.638 24.7403 224.449 24.0101 224.455 23.1338V9.42325ZM244.17 16.4884L241.158 16.8171C241.072 16.5128 240.923 16.2268 240.71 15.959C240.503 15.6913 240.223 15.4752 239.87 15.3109C239.517 15.1466 239.085 15.0645 238.574 15.0645C237.887 15.0645 237.308 15.2135 236.84 15.5117C236.377 15.8099 236.149 16.1963 236.155 16.671C236.149 17.0787 236.298 17.4104 236.603 17.666C236.913 17.9216 237.424 18.1315 238.136 18.2958L240.528 18.807C241.854 19.093 242.84 19.5464 243.485 20.1671C244.136 20.7878 244.465 21.6002 244.471 22.6043C244.465 23.4867 244.206 24.2656 243.695 24.9411C243.19 25.6105 242.487 26.1339 241.587 26.5112C240.686 26.8885 239.651 27.0771 238.483 27.0771C236.767 27.0771 235.385 26.7181 234.339 26C233.292 25.2758 232.668 24.2687 232.468 22.9786L235.69 22.6682C235.836 23.3011 236.146 23.7788 236.621 24.1013C237.095 24.4239 237.713 24.5851 238.474 24.5851C239.259 24.5851 239.889 24.4239 240.363 24.1013C240.844 23.7788 241.084 23.3802 241.084 22.9055C241.084 22.5039 240.929 22.1723 240.619 21.9106C240.315 21.6489 239.84 21.4481 239.195 21.3081L236.803 20.8061C235.459 20.5261 234.464 20.0545 233.818 19.3912C233.173 18.7218 232.854 17.8759 232.86 16.8536C232.854 15.9894 233.088 15.2409 233.563 14.608C234.044 13.9691 234.71 13.4762 235.562 13.1293C236.42 12.7763 237.409 12.5998 238.529 12.5998C240.172 12.5998 241.465 12.9498 242.408 13.6496C243.357 14.3494 243.945 15.2957 244.17 16.4884Z" fill="#9EC5FE"/>
</svg>
